Coordinates
version=1
nRows=14
nColumns=36
inDegrees=yes

Units are S.I. units (second, meters, Newtons, ...)
If the header above contains a line with 'inDegrees', this indicates whether rotational values are in degrees (yes) or radians (no).

endheader
time	pelvis_tilt	pelvis_list	pelvis_rotation	pelvis_tx	pelvis_ty	pelvis_tz	hip_flexion_r	hip_adduction_r	hip_rotation_r	knee_angle_r	knee_angle_r_beta	ankle_angle_r	subtalar_angle_r	mtp_angle_r	hip_flexion_l	hip_adduction_l	hip_rotation_l	knee_angle_l	knee_angle_l_beta	ankle_angle_l	subtalar_angle_l	mtp_angle_l	lumbar_extension	lumbar_bending	lumbar_rotation	arm_flex_r	arm_add_r	arm_rot_r	elbow_flex_r	pro_sup_r	arm_flex_l	arm_add_l	arm_rot_l	elbow_flex_l	pro_sup_l
      0.00000000	     -5.76436602	     -2.71699793	      4.61019847	     -0.13890432	      1.25924420	      0.01560482	      5.90666072	      2.28105354	      5.50041164	      5.15229617	      0.08992453	      4.32552554	    -10.83186868	     -7.19525624	      7.08102626	     -3.99101037	      0.83818471	      8.84909636	      0.15444587	     10.17432771	     -8.10464134	     -7.19525624	      3.77695310	      1.70027170	      0.63787567	     28.27977082	     -1.54359654	     51.47102471	    110.32857008	     83.64777003	     35.64874581	      0.44101453	     69.27283475	    108.70906593	     86.92098489
      0.01666670	     -4.28347514	     -2.87519341	      3.49488598	     -0.12768952	      1.25763675	      0.01238426	      3.06798738	      2.53838564	      6.63478784	      4.30335655	      0.07510774	      5.23583812	    -10.16741100	     -7.23997430	      4.49887634	     -4.12087778	      0.02393416	      6.88568079	      0.12017780	     11.05842818	     -8.70966996	     -7.23997430	      1.18370692	      2.59188189	      1.42159490	     31.33902814	     -4.02828126	     60.86509016	    115.56158279	     97.06721962	     38.20463693	     -0.13663237	     68.59907027	    112.24806243	    103.35124892
      0.03333330	     -3.69183255	     -3.04851652	      3.10029517	     -0.12593378	      1.25685963	      0.01264587	      2.24688246	      2.86409499	      7.70942520	      4.28361792	      0.07476324	      5.67360440	    -10.96138053	     -7.30505458	      3.00509319	     -4.24848005	      0.57247408	      6.04669409	      0.10553472	     10.54605243	     -9.70121887	     -7.30505458	      0.96123311	      2.76887149	      1.16190242	     31.60877617	     -2.52722270	     60.35949920	    117.01408584	     99.88327911	     38.74943679	     -0.41561737	     68.34204835	    112.06917090	    108.24322190
      0.05000000	     -3.99108241	     -3.30855858	      3.49288618	     -0.13739846	      1.25529649	      0.01486775	      2.58272234	      3.12901561	      7.51278380	      4.13969974	      0.07225139	      5.86556674	    -11.19347292	     -7.30848609	      3.74643274	     -4.56583391	      0.73952689	      6.53718829	      0.11409546	     10.77224294	     -9.90047212	     -7.30848609	      1.42450275	      2.78874218	      0.53401188	     31.93462992	     -1.33598842	     60.12597737	    116.43251434	     99.98027771	     40.04204264	     -0.37322492	     68.74128640	    112.07316012	    108.34759806
      0.06666670	     -4.58787669	     -3.51298954	      3.57635903	     -0.13638149	      1.25515492	      0.01472596	      3.48667280	      3.36804540	      7.64547562	      4.49611124	      0.07847194	      6.08122939	    -11.73487543	     -7.33277070	      4.48844907	     -4.76821412	      1.12758315	      7.39692335	      0.12910067	     10.71225137	    -10.59345234	     -7.33277070	      2.24371188	      2.84397719	      0.06832513	     31.98373871	     -0.49344495	     60.19041650	    115.66222806	     99.79934976	     40.50509832	     -0.41689435	     68.02309803	    111.46481103	    108.09201171
      0.08333330	     -4.96402828	     -3.66618020	      3.45268157	     -0.12533824	      1.25499410	      0.01190190	      3.57511602	      3.45675818	      7.10795919	      4.26713627	      0.07447558	      5.64659167	    -11.80629200	     -7.33804592	      4.72798834	     -5.02185857	      0.93429657	      7.82303597	      0.13653774	     10.91865586	    -10.62794345	     -7.33804592	      3.11626113	      2.93292457	     -0.08816920	     31.26668224	      0.00075786	     60.12574138	    115.70666703	     99.77453952	     40.09612835	     -0.06869373	     67.88200404	    111.36103115	    108.01989754
      0.10000000	     -5.46801821	     -3.81605711	      3.56720279	     -0.12423865	      1.25797489	      0.01180603	      3.95532005	      3.58645306	      6.69730615	      4.36872903	      0.07624871	      5.30117699	    -11.90863107	     -7.34317791	      5.23967284	     -5.18467481	      0.83252948	      8.32247887	      0.14525466	     11.00759588	    -10.71826052	     -7.34317791	      4.07996565	      3.01635458	     -0.39135628	     30.23407930	      0.14247014	     60.35413473	    115.46058572	     99.65568584	     39.23137677	     -0.02076750	     67.50345785	    110.61849691	    107.82125649
      0.11666670	     -7.15569285	     -4.01928686	      3.45009834	     -0.14573302	      1.24881272	      0.01045694	      6.33831190	      3.74912634	      6.22938143	      5.09053300	      0.08884656	      4.97321080	    -12.31981384	     -7.39256383	      7.85670137	     -5.32738458	      1.07353467	      9.75042951	      0.17017710	     11.95069112	    -10.75435782	     -7.39256383	      5.75248873	      3.13647137	     -0.88360629	     30.61476204	      0.46367181	     60.40270825	    114.82746982	     97.75139358	     39.84757326	      0.15245235	     67.38231709	    110.70082342	    106.64967657
      0.13333330	     -7.95410190	     -4.16645610	      3.74294343	     -0.13319396	      1.25485221	      0.00741004	      7.39359313	      3.80850887	      5.72729583	      5.42292049	      0.09464782	      4.83118926	    -12.29329056	     -7.39929853	      9.12998875	     -5.36206355	      1.22916300	     10.46341394	      0.18262102	     12.09576090	    -10.93840759	     -7.39929853	      6.64959148	      3.30470711	     -1.24554142	     29.87183201	      0.23365558	     60.44514495	    114.69834122	     96.66221446	     39.40283515	      0.31970033	     67.54237821	    110.47913336	    105.21169311
      0.15000000	     -9.25887206	     -4.30322972	      3.63850851	     -0.14489507	      1.24895301	      0.01037271	      9.37070823	      3.88456797	      5.67668076	      6.04456872	      0.10549763	      4.77899835	    -12.44343776	     -7.43464151	     11.19529956	     -5.40699719	      1.23366421	     11.60124225	      0.20247987	     12.45982124	    -10.88409443	     -7.43464151	      7.75356105	      3.40248673	     -1.41692853	     29.90152753	      0.31015150	     60.42861437	    114.02830957	     96.17206103	     39.62623234	      0.46495294	     67.53576216	    110.58696402	    105.59928765
      0.16666670	    -10.04001663	     -4.46790783	      3.62207898	     -0.14434146	      1.25161137	      0.01032540	     10.73656688	      3.98470871	      5.30155315	      6.55154767	      0.11434608	      4.73893555	    -12.46057888	     -7.43711110	     12.73713465	     -5.53656209	      1.21007215	     12.59159091	      0.21976472	     12.96494988	    -11.02136356	     -7.43711110	      8.06256552	      3.57722500	     -1.46918203	     29.82742105	      0.32014633	     60.50912867	    113.82740706	     96.01979342	     39.77591430	      0.34911657	     67.94508126	    110.56352787	    105.47918891
      0.18333330	    -10.87205249	     -4.62841820	      3.48020003	     -0.14507837	      1.24707774	      0.01045963	     12.15694501	      4.10993529	      5.11037850	      7.11776036	      0.12422835	      4.69697646	    -12.38740397	     -7.44592159	     14.23952966	     -5.64892945	      1.27548562	     13.50548214	      0.23571513	     13.32885753	    -11.27436271	     -7.44592159	      8.61156344	      3.69665095	     -1.44373012	     29.81907951	      0.46297556	     60.23540962	    114.12876482	     94.72510152	     39.86422594	      0.46888548	     68.01244665	    110.80023362	    104.18639611
      0.20000000	    -11.05786704	     -4.69473542	      3.33689417	     -0.13258590	      1.24807041	      0.00790966	     12.49824997	      4.16614240	      4.87962221	      7.43344117	      0.12973802	      4.42684040	    -12.44612908	     -7.44513852	     14.64335553	     -5.71049316	      0.98711559	     13.90416402	      0.24267344	     13.36507021	    -11.33304452	     -7.44513852	      8.87263893	      3.84269985	     -1.43633753	     28.96050939	      0.41801618	     60.35483841	    114.77960860	     93.90742709	     39.06500546	      0.53731576	     68.20236982	    111.01006715	    103.18700816
      0.21666670	    -11.25301878	     -4.63404959	      3.47166282	     -0.10987416	      1.24827336	      0.00209198	     12.23429976	      3.96246124	      4.74586025	      7.12866148	      0.12441861	      4.28831064	    -12.33034932	     -7.44794521	     14.19573510	     -5.52566164	      0.65980800	     13.26275981	      0.23147883	     12.55578935	    -11.48326232	     -7.44794521	     10.21789971	      3.92278374	     -1.55112247	     26.72337310	     -0.00231739	     60.80378399	    115.77526235	     92.39637202	     36.78559537	      0.87393858	     68.45299823	    111.25946915	    101.00701808
